<?xml version="1.0" encoding="UTF-8" standalone="no"?>
<!-- Created with Inkscape (http://www.inkscape.org/) -->

<svg
   xmlns:dc="http://purl.org/dc/elements/1.1/"
   xmlns:cc="http://creativecommons.org/ns#"
   xmlns:rdf="http://www.w3.org/1999/02/22-rdf-syntax-ns#"
   xmlns:svg="http://www.w3.org/2000/svg"
   xmlns="http://www.w3.org/2000/svg"
   xmlns:sodipodi="http://sodipodi.sourceforge.net/DTD/sodipodi-0.dtd"
   xmlns:inkscape="http://www.inkscape.org/namespaces/inkscape"
   width="210mm"
   height="100mm"
   viewBox="0 0 744.09449 354.33071"
   id="svg12016"
   version="1.1"
   inkscape:version="0.91 r13725"
   sodipodi:docname="IKO logo clean_white.svg">
  <defs
     id="defs12018" />
  <sodipodi:namedview
     id="base"
     pagecolor="#ffffff"
     bordercolor="#666666"
     borderopacity="1.0"
     inkscape:pageopacity="0.0"
     inkscape:pageshadow="2"
     inkscape:zoom="0.22475837"
     inkscape:cx="831.74233"
     inkscape:cy="577.26045"
     inkscape:document-units="px"
     inkscape:current-layer="g4543-3-4-0-7"
     showgrid="false"
     inkscape:window-width="1440"
     inkscape:window-height="851"
     inkscape:window-x="0"
     inkscape:window-y="1"
     inkscape:window-maximized="1"
     showguides="true"
     inkscape:guide-bbox="true" />
  <metadata
     id="metadata12021">
    <rdf:RDF>
      <cc:Work
         rdf:about="">
        <dc:format>image/svg+xml</dc:format>
        <dc:type
           rdf:resource="http://purl.org/dc/dcmitype/StillImage" />
        <dc:title></dc:title>
      </cc:Work>
    </rdf:RDF>
  </metadata>
  <g
     inkscape:label="Layer 1"
     inkscape:groupmode="layer"
     id="layer1"
     transform="translate(0,-698.0315)">
    <g
       id="g4543-3-4-0-7"
       transform="matrix(1.2300111,0.02211879,-0.02211879,1.2300111,-11844.65,-5125.6068)"
       style="fill:#005eb8;fill-opacity:1">
      <path
         inkscape:transform-center-x="-138.72078"
         inkscape:transform-center-y="-83.122181"
         inkscape:connector-curvature="0"
         id="rect3933-8-3-1-27-5-9-9-3-2-4-9-8-0-1-2-0"
         d="m 10005.041,4637.307 c 0,0 -2.77,0.283 -4.641,1.7457 -1.9463,1.5216 -2.351,4.0425 -2.351,4.0425 0,0 -15.4194,74.6836 -24.6855,119.3426 0,0 -0.8911,4.4899 0.5145,5.8296 2.3028,2.1951 3.7866,2.0218 3.7866,2.0218 l 5.92,-0.1051 5.9195,-0.1052 c 0,0 2.6682,0.2591 4.8816,-2.3332 2.214,-2.5925 2.6718,-4.7989 2.6718,-4.7989 l 6.7825,-33.3902 72.875,38.8995 14.177,-0.07 c 7.651,-2.2298 6.947,-5.5538 7.466,-7.3803 0,0 0.542,-2.9349 0.09,-4.3386 l -0.604,-1.2406 c -0.285,-0.587 -1.104,-1.2327 -1.104,-1.2327 l -3.801,-2.7721 -4.543,-2.4266 -60.091,-32.5241 c 0,0 53.738,-25.027 80.224,-37.1925 0,0 4.237,-2.4486 5.595,-4.597 1.359,-2.1478 2.728,-4.5816 1.45,-8.0306 -1.276,-3.449 -6.323,-4.0645 -6.323,-4.0645 l -10.254,0.1661 -4.325,0.7394 -85.445,39.2819 12.249,-60.0035 c 0,0 0.686,-2.6446 -0.82,-4.1566 -1.032,-1.036 -3.944,-1.4352 -3.944,-1.4352 l -5.838,0.014 -5.837,0.1037 z"
         style="color:#000000;display:inline;overflow:visible;visibility:visible;fill:#ffffff;fill-opacity:1;stroke:none;stroke-width:4.48874998;marker:none;enable-background:accumulate"
         sodipodi:nodetypes="csccccccccccccccccccccccccccccccc" />
      <g
         style="fill:#ffffff;fill-opacity:1"
         inkscape:transform-center-y="-82.178121"
         inkscape:transform-center-x="-26.673825"
         transform="matrix(1.333121,-0.00441691,0.00441691,1.333121,9563.3476,4571.8208)"
         id="g3004-6-6-6-6-2-1-8-1-5-3-6-0-5-4-1">
        <path
           style="color:#000000;display:inline;overflow:visible;visibility:visible;fill:#ffffff;fill-opacity:1;stroke:none;stroke-width:4.48874998;marker:none;enable-background:accumulate"
           d="m 295.08099,51.892485 c 1.4215,-1.0737 3.46269,-1.27337 3.46269,-1.27337 l 4.40096,0.0225 4.40096,0.0225 c 0,0 2.16554,0.34906 2.92655,1.13932 1.11004,1.15273 0.58084,3.16109 0.58084,3.16109 l -2.6808,12.83429 -17.81868,0.28291 2.87327,-13.1953 c 0,0 0.37552,-1.87663 1.85421,-2.99354 z"
           id="rect3933-1-5-1-1-0-1-5-0-6-1-9-0-8-6-8"
           inkscape:connector-curvature="0"
           sodipodi:nodetypes="ccccsccccsc" />
        <path
           style="color:#000000;display:inline;overflow:visible;visibility:visible;fill:#ffffff;fill-opacity:1;stroke:none;stroke-width:4.48874998;marker:none;enable-background:accumulate"
           d="m 287.72326,78.039125 -14.88732,66.304885 c 0,0 -0.72443,3.35641 0.31275,4.37862 1.69971,1.67517 2.87739,1.62635 2.87739,1.62635 l 4.37862,0 4.44117,0 c 0,0 2.06022,0.22767 3.75311,-1.68889 1.69288,-1.91659 2.00166,-3.62801 2.00166,-3.62801 l 14.76221,-66.992955 z"
           id="rect3933-8-8-54-7-4-2-4-1-1-8-2-6-1-2-1-1-2"
           inkscape:connector-curvature="0"
           sodipodi:nodetypes="ccscccsccc" />
      </g>
      <path
         inkscape:transform-center-x="-323.44437"
         inkscape:transform-center-y="-65.539238"
         inkscape:connector-curvature="0"
         id="rect3975-2-5-2-9-1-2-9-3-1-7-9-0-1-4-5"
         d="m 10175.864,4661.2192 c -4.723,0.1208 -15.769,0.9858 -31.269,9.5053 -16.151,8.8777 -17.651,19.5935 -17.651,19.5935 l -0.157,0.5865 25.096,-0.4666 c 4.6,-4.0668 4.946,-4.1566 10.386,-6.6145 5.439,-2.4581 21.679,-3.1896 21.679,-3.1896 l 39.885,-0.7047 c 0,0 16.442,-1.0054 20.838,3.8671 3.169,3.5124 2.843,9.372 2.843,9.372 l -7.753,36.1742 c 0,0 -1.416,7.5517 -8.785,12.0061 -7.2,4.195 -12.19,3.8124 -12.19,3.8124 l -50.856,1.1055 c 0,0 -18.089,0.8664 -23.092,-3.9089 -4.079,-3.893 -3.382,-7.0263 -3.382,-7.0263 l 6.452,-29.8116 -24.428,0.4548 -5.824,27.7979 c 0,0 -3.05,13.612 4.912,22.0111 8.539,9.0075 32.235,11.2459 32.235,11.2459 0,0 39.135,-0.4738 58.701,-0.8344 0,0 14.659,-0.085 28.221,-7.3623 19.673,-10.5568 19.976,-20.2203 19.976,-20.2203 l 8.823,-41.4484 c 0,0 4.034,-18.001 -2.984,-26.0502 -9.454,-10.8392 -28.982,-11.1392 -28.982,-11.1392 l -59.906,1.1662 c 0,0 -0.651,0.01 -2.226,0.043 z"
         style="color:#000000;display:inline;overflow:visible;visibility:visible;fill:#ffffff;fill-opacity:1;stroke:none;stroke-width:4.48874998;marker:none;enable-background:accumulate"
         sodipodi:nodetypes="csccczccccccccsccccscccccccccc" />
      <path
         style="fill:#ffffff;fill-opacity:1;stroke:none"
         d="m 9878.084,4640.2056 c -3.0381,0.074 -7.2569,0.5956 -9.6138,2.7494 -3.9693,3.6272 -5.5301,8.1003 -5.5301,8.1003 0,0 -2.1844,7.7659 -2.2207,9.5445 -0.036,1.7787 1.2466,0.8661 1.2466,0.8661 l 3.7402,52.1086 c 0,0 -0.3434,-0.098 -0.4307,0.7588 -0.091,0.8561 -0.6918,5.3138 -0.8556,5.727 -0.1634,0.4133 -0.8416,2.6129 -0.8416,2.6129 l -1.4923,0.6426 -0.2276,0.6535 0.4563,0.6751 c 0,0 1.4182,0.9319 1.3629,1.651 -0.055,0.719 -0.021,0.718 -0.3907,1.1005 -0.3693,0.3829 -4.1069,3.5965 -4.3351,4.2159 -0.2282,0.6197 -0.6524,1.7211 -0.6524,1.7211 l 0.019,0.6154 c 0,0 -2.5231,0.4204 -2.6878,0.7654 -0.1655,0.3449 -0.049,0.8556 -0.049,0.8556 0,0 1.7438,-0.066 2.2254,0.098 0.4816,0.1614 1.0342,0.5631 1.6495,0.5521 0.6152,-0.019 1.4037,0.1116 1.4699,-0.028 0.066,-0.1384 0.1019,-0.034 0.091,-0.6848 -0.019,-0.6495 -0.5224,-0.4698 -0.528,-0.7775 0,-0.3077 0.055,-0.7199 0.2612,-0.7578 0.2043,-0.038 0.3156,0.4394 1.0662,0.3576 0.7508,-0.083 1.125,-0.1559 1.3313,-0.092 0.2061,0.066 0.4447,0 0.3811,0.2661 -0.064,0.2745 -2.1974,1.4068 -2.2292,1.5441 -0.032,0.1384 0.4311,1.1556 0.4311,1.1556 0,0 -0.3394,0.1077 -0.476,0.1097 -0.1366,0 -4.5573,-0.4988 -4.9732,-0.7991 -0.4157,-0.3 -1.8891,-0.5478 -2.0259,-0.5452 -0.1365,0 -0.6721,0.6277 -0.8432,0.6308 -0.171,0 -0.2025,0.1404 -0.1731,-0.03 0.031,-0.1711 0.6224,-1.5155 0.6224,-1.5155 0,0 -1.8185,-0.3431 -2.5337,-0.1936 -0.7154,0.1502 -1.433,0.1972 -1.433,0.1972 0,0 -8.6549,-4.084 -10.2191,-5.4919 -1.5639,-1.4081 -7.7272,-3.7937 -8.2403,-3.7844 -0.5125,0 0.1673,-0.346 0.1673,-0.346 0,0 10.6754,-15.1335 13.9551,-20.995 3.2794,-5.8614 6.7109,-13.9496 6.7109,-13.9496 0,0 0.2587,-0.7803 -0.1499,-2.0303 -0.4096,-1.2498 -2.1594,-2.2294 -2.4189,-2.3955 -0.2591,-0.1673 -5.3134,-2.7421 -5.8702,-3.2794 -0.5567,-0.5369 -4.9796,-3.056 -4.9796,-3.056 0,0 -1.7267,-0.9949 -2.6118,-0.7739 -0.885,0.2211 -2.4444,1.0003 -2.4444,1.0003 0,0 -20.8948,16.7893 -38.7679,42.0015 -17.8732,25.2125 -22.9336,40.4668 -22.9336,40.4668 0,0 -0.3274,0.7746 -0.2533,1.0982 0.075,0.3234 0.4265,0.8978 0.4265,0.8978 l 14.4487,8.699 c 0,0 0.6175,0.1946 0.9589,0.1539 0.3412,-0.04 1.107,-0.2775 1.1743,-0.3298 0.067,-0.052 15.2607,-13.5406 15.2607,-13.5406 l 0.177,-0.091 0.4643,0.2836 c 0,0 1.5266,1.5437 1.8936,1.7789 0.3671,0.2352 1.1996,0.8246 1.624,0.9015 0.4242,0.077 1.3928,0.2034 1.5515,0.285 0.1595,0.083 0.5255,0.3188 0.5996,0.402 0.074,0.083 1.0256,1.8425 1.5857,2.0741 0.5602,0.2318 1.7631,0.584 2.0774,0.5785 0.3141,0 4.3837,-0.2122 4.3837,-0.2122 l 5.8001,-0.1403 c 0,0 4.9123,0.081 5.4579,0 0.5457,-0.079 3.6465,-0.6812 3.954,-0.6867 0.3078,0 7.3804,-0.2676 7.7901,-0.3095 0.4095,-0.04 7.6964,-1.609 8.5817,-1.7959 0.8859,-0.1865 6.548,-1.0411 7.8107,-1.1665 1.2626,-0.125 6.5197,-0.5627 7.6345,-1.301 1.1149,-0.7377 2.3766,-0.9656 3.8669,-3.6593 1.49,-2.6937 1.744,-3.7227 1.744,-3.7227 0,0 0.1346,-0.2421 0.3049,-0.2108 0.1712,0.03 0.3735,0.3697 0.2832,0.5767 -0.091,0.2068 -1.5608,3.0702 -1.5608,3.0702 0,0 -0.4436,0.9655 -0.2883,1.0311 0.1537,0.066 1.4606,-0.5128 1.7129,-0.7311 0.2526,-0.2182 2.4979,-1.3615 4.0755,-2.9968 1.5776,-1.6353 2.324,-1.9226 2.324,-1.9226 0,0 4.2717,-2.0955 5.3136,-3.1059 1.0417,-1.0101 0.9887,-1.9646 1.5861,-2.9666 0.5976,-1.0023 2.6923,-4.29 3.2583,-5.155 0.5654,-0.8648 0.7323,-1.1407 0.7323,-1.1407 0,0 0.7532,-1.8254 1.2943,-2.1428 0.5414,-0.3174 1.9759,-0.4118 2.9285,-0.6683 0.9528,-0.2564 2.7415,-1.555 2.6832,-2.8874 -0.058,-1.3323 -1.4627,-5.307 -2.4686,-6.1093 -1.0055,-0.8025 -4.3025,-3.5125 -4.3025,-3.5125 l -0.045,-0.5113 4.0999,-0.1076 2.0684,0.9189 c 0,0 1.6511,0.5855 2.1796,-0.4496 0.5281,-1.0351 0.062,-2.3605 -1.0127,-3.1274 -1.0734,-0.7672 0,-0.2728 0,-0.2728 0,0 1.4197,-4.6411 1.715,-5.3301 0.2952,-0.6891 0.6556,-1.6536 0.6822,-2.0644 0.027,-0.4108 0.9879,-2.1035 0.9879,-2.1035 l 13.8768,-22.9865 0.6143,-0.079 7.1757,-9.7712 c 0,0 2.2037,-3.0136 1.189,-8.0897 -1.0142,-5.0762 -3.3972,-8.2147 -3.3972,-8.2147 0,0 -5.2421,-8.2811 -16.9802,-14.5665 -11.7378,-6.2852 -20.4306,-6.6769 -20.4306,-6.6769 0,0 -1.5257,-0.1652 -3.6049,-0.1172 z m -12.8811,18.5684 c 1.1773,0 2.1087,0.3301 2.1087,0.3301 l 9.9343,57.3049 -0.288,0.2103 -0.5933,0.3026 c 0,0 -0.7579,0.5428 -0.9767,0.7349 -0.2198,0.1923 -0.8282,0.5787 -0.9464,0.6664 -0.1173,0.088 -0.5047,0.4187 -0.6745,0.4903 -0.1693,0.071 -0.6464,0.1654 -0.6464,0.1654 0,0 -0.5718,0.5402 -0.6043,0.6434 -0.032,0.1039 -0.1903,0.7903 -0.2049,1.0128 -0.022,0.2226 -0.022,0.2574 -0.2492,0.3641 -0.2372,0.1077 -0.2077,-0.019 -0.2944,-0.1327 -0.088,-0.1192 -0.074,-0.2209 -0.2127,-0.4235 -0.1422,-0.2028 -0.2725,-0.019 -0.3407,-0.019 -0.067,0 -2.2338,2.3128 -2.3166,2.4512 -0.084,0.1385 -0.4929,0.1288 -0.6967,0.2005 -0.2037,0.071 -1.1537,-0.4979 -1.1665,-0.5057 -0.026,0.019 0,0 0,0 0,0 0,0 0,0 0.025,-0.019 0.047,-0.036 0.1269,-0.1076 0.2019,-0.175 0.6342,-2.849 0.632,-2.9859 0,-0.1363 -0.098,-1.606 -0.098,-1.606 l -0.301,-1.5663 -0.019,-2.7012 -0.4183,-0.4368 -4.1296,-52.9498 c 0,0 0.3914,-1.2885 1.8506,-1.4275 0.1769,-0.019 0.3499,-0.026 0.5182,-0.023 z m 4.505,0.2955 c 1.3565,-0.019 3.8898,0.1866 8.216,1.2695 7.3831,1.8499 11.0229,5.2661 11.0229,5.2661 0,0 5.7377,1.879 9.9436,4.5112 4.2057,2.6322 8.2254,7.5652 8.2254,7.5652 0,0 2.1115,1.4661 3.0663,2.2697 0.9545,0.8033 2.1575,3.9954 2.1575,3.9954 l -30.6734,32.6346 -0.3353,0.1749 -2.5614,0.021 -0.5185,-0.5956 -9.8736,-56.976 c 0,0 0.3048,-0.1 1.0743,-0.1289 0.083,0 0.1654,0 0.2562,0 z m 43.0533,25.9716 0.4281,1.4541 -14.0706,23.1235 c 0,0 -0.6229,1.6783 -1.4831,2.2499 -0.8599,0.5714 -2.3541,2.1695 -3.4805,4.0756 -1.1262,1.906 -1.1112,4.0817 -1.1112,4.0817 l -2.9953,0.1288 -1.2872,-0.2751 -0.5761,-0.1615 -0.9211,0.067 -0.6723,1.0807 -0.2638,0.1672 -0.3381,-0.362 0.019,-0.5989 c 0,0 -0.094,-0.3826 -0.123,-0.4591 -0.028,-0.077 -2.9081,-2.0673 -2.9081,-2.0673 l -0.3923,0.067 -0.3985,0.1692 -0.1596,-0.2702 30.7353,-32.4706 z m -42.1943,42.1584 c 0,0 0.083,1.982 0.6733,2.5032 0.5897,0.5213 0.7974,1.291 0.7974,1.291 l -0.1365,0.4869 -1.0219,-0.3689 -2.1651,0.5213 -1.2868,1.0386 0.4125,-1.1667 0.2684,-1.31 1.0424,-1.0828 1.0979,-0.8427 0.319,-1.0699 z m -49.7694,12.6464 1.571,1.3723 c 0,0 1.954,1.029 2.9754,1.3489 1.0213,0.3201 2.4859,1.2126 3.116,1.298 0.6304,0.084 1.8501,0.6925 2.0502,1.0758 0.1982,0.3833 0.8315,0.5167 2.3799,0.5856 1.5486,0.069 1.03,0.8042 1.03,0.8042 0,0 -2.1682,0.3291 -2.4091,0.3818 -0.2407,0.052 -0.9173,0.1615 -1.5855,0.6569 -0.6678,0.4955 -1.7849,0.2245 -2.3648,0.235 -0.5801,0.019 -1.2985,0.3615 -1.5832,0.6568 -0.2852,0.2953 -2.2183,0.3787 -3.1356,0.4434 -0.9179,0.066 -10.5751,3.431 -10.5751,3.431 l 0.3045,0.8152 -1.1107,0.1173 -0.501,-1.0551 c 0,0 4.4512,-5.156 5.1608,-6.0392 0.7097,-0.8832 4.6772,-6.1281 4.6772,-6.1281 z"
         id="path17738-3-2-9-8"
         inkscape:connector-curvature="0" />
    </g>
  </g>
</svg>
